<svg width="500" height="500" viewBox="0 0 500 500" fill="none" xmlns="http://www.w3.org/2000/svg">
<path d="M0 250C0 111.929 111.929 0 250 0V0C388.071 0 500 111.929 500 250V250C500 388.071 388.071 500 250 500H0V250Z" fill="white"/>
<path d="M165.799 309.397L210.231 264.598C212.734 262.074 215.655 260.862 218.992 260.963C222.33 261.064 225.25 262.381 227.754 264.913C230.048 267.437 231.195 270.382 231.195 273.747C231.195 277.112 230.048 280.057 227.754 282.581L174.874 336.214C172.37 338.738 169.45 340 166.112 340C162.775 340 159.854 338.738 157.351 336.214L130.442 309.082C128.147 306.768 127 303.824 127 300.248C127 296.673 128.147 293.728 130.442 291.414C132.736 289.101 135.657 287.944 139.203 287.944C142.749 287.944 145.67 289.101 147.964 291.414L165.799 309.397ZM165.799 208.44L210.231 163.64C212.734 161.116 215.655 159.905 218.992 160.006C222.33 160.107 225.25 161.423 227.754 163.956C230.048 166.48 231.195 169.424 231.195 172.79C231.195 176.155 230.048 179.099 227.754 181.623L174.874 235.257C172.37 237.781 169.45 239.043 166.112 239.043C162.775 239.043 159.854 237.781 157.351 235.257L130.442 208.125C128.147 205.811 127 202.866 127 199.291C127 195.715 128.147 192.771 130.442 190.457C132.736 188.143 135.657 186.987 139.203 186.987C142.749 186.987 145.67 188.143 147.964 190.457L165.799 208.44ZM271.872 319.809C268.326 319.809 265.356 318.597 262.961 316.174C260.566 313.751 259.365 310.756 259.356 307.189C259.348 303.622 260.549 300.627 262.961 298.204C265.372 295.781 268.343 294.569 271.872 294.569H359.484C363.03 294.569 366.005 295.781 368.408 298.204C370.811 300.627 372.008 303.622 372 307.189C371.992 310.756 370.79 313.755 368.395 316.187C366.001 318.618 363.03 319.825 359.484 319.809H271.872ZM271.872 218.851C268.326 218.851 265.356 217.64 262.961 215.217C260.566 212.794 259.365 209.799 259.356 206.232C259.348 202.664 260.549 199.669 262.961 197.246C265.372 194.823 268.343 193.612 271.872 193.612H359.484C363.03 193.612 366.005 194.823 368.408 197.246C370.811 199.669 372.008 202.664 372 206.232C371.992 209.799 370.79 212.798 368.395 215.229C366.001 217.661 363.03 218.868 359.484 218.851H271.872Z" fill="#4F46E5"/>
</svg>
